<?xml version="1.0" encoding="UTF-8"?> <svg xmlns="http://www.w3.org/2000/svg" id="a" viewBox="0 0 72.18 74.7"><path d="M16.11,30.55c-.35-.43-.63-1.16-.56-2.04,.08-1.13,.8-3.31,4.7-5.31,2.64-1.35,5.47-2.25,8.2-3.11,5.19-1.64,10.08-3.19,11.37-7.57l.16-.26,.28,.08c1.39,.41,3.85,1.7,4.65,5.65,.15,.71,.16,1.38,.03,2l1.59,.48c.2-.87,.2-1.82,0-2.81-1.13-5.53-5.26-7.11-7.31-7.18-.41,0-.78,.32-.83,.72-.51,3.97-4.3,5.36-10.45,7.31-2.8,.89-5.7,1.81-8.44,3.21-4.64,2.37-5.5,5.2-5.61,6.67-.1,1.4,.38,2.75,1.24,3.54l.98-1.38Z" fill="#f3bdb5"></path><path d="M21.41,19.61l.73-1.57c-.17-.21-.32-.52-.36-.93-.07-.65,.13-1.99,2.22-3.59,1.48-1.14,3.16-2.02,4.78-2.88,3.02-1.6,5.88-3.11,6.39-5.94l.13-.29,.3,.07c.9,.22,2.15,.88,2.94,2.8,.14,.34,.22,.67,.24,.99l1.67,.17c0-.58-.12-1.19-.37-1.79-1.19-2.9-3.51-3.93-5.28-3.93-.19,0-.37,.01-.53,.04-.43,.06-.73,.44-.71,.87,.15,2.39-2.02,3.66-5.6,5.55-1.59,.84-3.39,1.8-4.98,3.01-2.75,2.11-2.97,4.11-2.86,5.11,.1,.96,.59,1.83,1.28,2.29Z" fill="#f3bdb5"></path><path d="M63.57,3.42c-.29-1.06-1.19-2.08-2.39-2.74-.81-.44-1.71-.68-2.54-.68-.38,0-.74,.05-1.06,.15-.67,.21-1.2,.63-1.48,1.19l-7.96,15.7,1.48,.75,7.96-15.7c.08-.16,.26-.29,.49-.36,.16-.05,.36-.08,.58-.08,.55,0,1.16,.17,1.73,.48,.96,.53,1.46,1.23,1.6,1.74,.04,.17,.07,.4-.04,.59l-10.9,18.65,1.43,.84L63.38,5.31c.32-.54,.39-1.22,.2-1.89Z" fill="#f3bdb5"></path><path d="M16.17,42.64c2.91,.56,8.73,1.49,14.96,1.49,7.54,0,13.18-1.36,16.77-4.03,2.61-1.95,4.11-4.61,4.44-7.89,.64-6.51-4.01-9.21-6.73-9.75-.36,0-.68,.23-.79,.56-1.62,4.73-6.96,5.36-13.73,6.17-3.39,.4-6.89,.82-10.36,1.83-3.85,1.12-6.36,2.79-7.44,4.94-.65,1.3-.74,2.74-.24,4.08,.49,1.33,1.69,2.33,3.12,2.6Zm-1.39-5.93c.6-1.19,2.19-2.86,6.42-4.1,3.3-.96,6.73-1.37,10.1-1.77,6.34-.75,12.33-1.46,14.67-6.23l.03-.06,.19-.22,.25,.1c1.8,.74,4.74,2.72,4.25,7.61-.28,2.83-1.52,5.03-3.78,6.72-3.27,2.45-8.56,3.69-15.7,3.69-6.66,0-12.96-1.11-14.73-1.45-.86-.16-1.58-.76-1.88-1.55-.23-.63-.39-1.62,.17-2.75Z" fill="#f3bdb5"></path><path d="M53.59,37.92c.85,.85,1.28,1.72,1.28,2.58,0,3.89-8.98,8.05-22.35,8.05s-22.35-4.16-22.35-8.05c0-.61,.21-1.22,.63-1.82l-1.29-1.05c-.66,.91-1,1.88-1,2.87,0,.37,.07,.76,.2,1.23l.07,.32h-.04l4.33,27.81c.05,.28,.23,.51,.52,.64,4.47,2.63,11.74,4.19,19.46,4.19,7.13,0,13.82-1.31,18.36-3.6,.24-.12,.4-.35,.44-.61l4.44-28.43h-.06l.09-.33c.14-.46,.2-.85,.2-1.23,0-1.35-.62-2.63-1.83-3.82l-1.11,1.23Zm-3.29,31.73l-.06,.17-.14,.07c-4.29,2-10.5,3.15-17.05,3.15-7.19,0-14.01-1.4-18.24-3.75l-.16-.12-3.8-24.35,.58,.43c4.15,3.11,12.04,4.96,21.09,4.96s16.93-1.85,21.09-4.96l.58-.43-3.88,24.84Z" fill="#f3bdb5"></path></svg> 