<?xml version="1.0" encoding="UTF-8"?> <svg xmlns="http://www.w3.org/2000/svg" id="a" viewBox="0 0 71.79 71.78"><path d="M.97,71.78c-.26,0-.5-.1-.69-.28s-.28-.43-.28-.69,.1-.5,.28-.69l10.75-10.75v-7.29l-.05-.04c-5.77-4.47-8.69-9.41-8.69-14.69,0-9.14,8.75-15.83,9.12-16.11,.17-.13,.37-.2,.58-.2s.41,.07,.58,.2c.37,.28,9.12,6.97,9.12,16.11,0,5.28-2.92,10.22-8.69,14.69l-.05,.04v5.35l19.03-19.03v-7.29l-.05-.04c-5.77-4.47-8.69-9.41-8.69-14.69C23.28,7.25,32.03,.56,32.4,.28c.17-.13,.37-.2,.58-.2s.41,.07,.58,.2c.37,.28,9.12,6.97,9.12,16.11,0,5.28-2.92,10.22-8.69,14.69l-.05,.04v5.35l14.75-14.74v-.06c-.93-7.24,.5-12.8,4.23-16.53C57.39,.67,64.04,0,67.6,0c1.75,0,2.95,.15,3.17,.18,.43,.06,.77,.4,.82,.82,.07,.46,1.55,11.35-4.94,17.84-2.99,2.99-7.19,4.51-12.47,4.51-1.25,0-2.62-.09-4.06-.27h-.06l-14.75,14.74h5.34l.04-.05c4.47-5.77,9.41-8.69,14.69-8.69,9.12,0,15.83,8.75,16.11,9.12,.26,.34,.26,.82,0,1.17-.28,.37-6.99,9.12-16.11,9.12-5.28,0-10.22-2.92-14.69-8.69l-.04-.05h-7.28L14.35,58.81h5.35l.04-.05c4.47-5.77,9.41-8.69,14.69-8.69,9.12,0,15.83,8.75,16.11,9.12,.26,.34,.26,.82,0,1.17-.28,.37-6.99,9.12-16.11,9.12-5.28,0-10.22-2.92-14.69-8.69l-.04-.05h-7.29L1.66,71.5c-.18,.18-.43,.28-.69,.28Zm21.39-10.84c3.77,4.38,7.83,6.6,12.06,6.6,6.87,0,12.47-5.88,14.02-7.69l.07-.08-.07-.08c-1.56-1.8-7.17-7.69-14.02-7.69-4.23,0-8.29,2.22-12.06,6.6l-.17,.2h12.78c.53,0,.97,.44,.97,.97s-.44,.97-.97,.97h-12.78l.17,.2ZM11.93,23.35c-1.8,1.56-7.69,7.18-7.69,14.03,0,4.22,2.22,8.28,6.59,12.05l.2,.17v-12.78c0-.53,.44-.97,.97-.97s.97,.44,.97,.97v12.78l.2-.17c4.38-3.77,6.59-7.83,6.59-12.06,0-6.86-5.88-12.46-7.68-14.02l-.08-.07-.08,.07Zm31.41,16.62c3.77,4.38,7.83,6.6,12.06,6.6,6.87,0,12.47-5.88,14.02-7.69l.07-.08-.07-.08c-1.56-1.8-7.17-7.69-14.02-7.69-4.23,0-8.29,2.22-12.06,6.6l-.17,.2h12.78c.53,0,.97,.44,.97,.97s-.44,.97-.97,.97h-12.78l.17,.2ZM32.9,2.37c-1.8,1.56-7.69,7.18-7.69,14.03,0,4.22,2.22,8.28,6.59,12.05l.2,.17V15.84c0-.53,.44-.97,.97-.97s.97,.44,.97,.97v12.78l.2-.17c4.38-3.77,6.6-7.83,6.6-12.06,0-6.86-5.88-12.46-7.68-14.02l-.08-.07-.08,.07Zm27.28,8.26c.26,0,.5,.1,.69,.28,.38,.38,.38,.99,0,1.37l-9.03,9.03,.26,.02c.71,.05,1.41,.08,2.08,.08,4.75,0,8.48-1.32,11.1-3.93,4.85-4.84,4.66-12.97,4.49-15.35v-.1h-.11c-.63-.05-1.29-.08-1.97-.08-3.3,0-9.43,.59-13.39,4.55-2.98,2.99-4.28,7.42-3.85,13.18l.02,.26,9.03-9.03c.18-.18,.43-.28,.69-.28Z" fill="#f3bdb5"></path></svg> 