<?xml version="1.0" encoding="UTF-8"?> <svg xmlns="http://www.w3.org/2000/svg" id="a" viewBox="0 0 53.44 75.25"><path d="M13.09,31.62c5.66,0,10.47-4.04,11.48-9.52h4.3c1.02,5.47,5.82,9.52,11.48,9.52,6.46,0,11.72-5.26,11.72-11.72,0-2.49-.74-6.15-2.76-8.5l-1.34-10.68c-.06-.45-.46-.76-.91-.71-.45,.06-.76,.46-.71,.91l1.31,10.51c-5.64,5.77-11.74,8.82-18.14,9.05h-5.63c-6.4-.23-12.5-3.28-18.14-9.05L7.08,.92c.06-.45-.26-.85-.71-.91-.45-.06-.85,.26-.91,.71l-1.34,10.68c-2.02,2.35-2.76,6.01-2.76,8.5,0,6.46,5.26,11.72,11.72,11.72ZM48.47,12.94c1.36,1.92,1.97,4.78,1.97,6.96,0,5.56-4.53,10.09-10.09,10.09-4.79,0-8.88-3.36-9.84-7.94,6.35-.48,12.39-3.54,17.97-9.11Zm-25.54,9.11c-.97,4.58-5.06,7.94-9.85,7.94-5.56,0-10.09-4.53-10.09-10.09,0-2.18,.61-5.04,1.97-6.96,5.58,5.57,11.61,8.63,17.97,9.11Z" fill="#f3bdb5"></path><path d="M53.41,55.15c-1.23-5.04-2.72-8.2-2.78-8.34-.17-.35-.56-.53-.93-.44-15.04,3.54-30.93,3.54-45.97,0-.37-.09-.77,.09-.93,.44-.06,.13-1.55,3.3-2.78,8.34-.1,.42,.14,.85,.56,.97,.05,.01,4.6,1.38,9.48,4.37,4.45,2.72,10.1,7.38,11.77,14.13,.09,.36,.42,.62,.79,.62h8.18c.37,0,.7-.26,.79-.62,1.67-6.76,7.33-11.41,11.77-14.13,4.89-2.99,9.44-4.36,9.48-4.37,.42-.12,.66-.55,.56-.97Zm-10.86,3.93c-6.53,3.98-10.79,9-12.37,14.53h-6.93c-1.58-5.54-5.85-10.55-12.37-14.53-3.93-2.4-7.57-3.76-9.09-4.28,.84-3.26,1.78-5.64,2.22-6.69,14.87,3.39,30.54,3.39,45.41,0,.45,1.05,1.38,3.44,2.22,6.69-1.52,.52-5.16,1.88-9.09,4.28Z" fill="#f3bdb5"></path></svg> 