<?xml version="1.0" encoding="UTF-8"?> <svg xmlns="http://www.w3.org/2000/svg" id="a" viewBox="0 0 72.25 72.24"><path d="M36.12,0C16.21,0,0,16.2,0,36.12s16.21,36.12,36.12,36.12,36.12-16.2,36.12-36.12S56.04,0,36.12,0Zm0,70.45C17.2,70.45,1.8,55.05,1.8,36.12S17.2,1.79,36.12,1.79s34.33,15.4,34.33,34.33-15.4,34.33-34.33,34.33Z" fill="#f3bdb5"></path><path d="M46.96,30.48c-.2,0-.4,.08-.57,.23l-9.52,8.54-11.84-15.68c-.1-.14-.28-.3-.72-.35-.19,0-.38,.06-.53,.18-.19,.15-.32,.36-.35,.59-.03,.23,.03,.47,.18,.66l12.42,16.46c.15,.2,.38,.33,.63,.35h.1c.2,0,.43-.09,.58-.22l10.25-9.19c.37-.33,.4-.9,.07-1.26-.17-.19-.4-.28-.7-.3Z" fill="#f3bdb5"></path><path d="M36.12,14.59c.5,0,.9-.4,.9-.89V6.92c0-.49-.4-.89-.9-.89s-.9,.4-.9,.89v6.77c0,.49,.4,.89,.9,.89Z" fill="#f3bdb5"></path><path d="M36.12,57.65c-.5,0-.9,.4-.9,.89v6.77c0,.49,.4,.89,.9,.89s.9-.4,.9-.89v-6.77c0-.49-.4-.89-.9-.89Z" fill="#f3bdb5"></path><path d="M13.7,35.23H6.93c-.49,0-.89,.4-.89,.89s.4,.89,.89,.89h6.77c.5,0,.9-.4,.9-.89s-.4-.89-.9-.89Z" fill="#f3bdb5"></path><path d="M65.32,35.23h-6.77c-.5,0-.9,.4-.9,.89s.4,.89,.9,.89h6.77c.5,0,.9-.4,.9-.89s-.4-.89-.9-.89Z" fill="#f3bdb5"></path></svg> 