<?xml version="1.0" encoding="UTF-8"?> <svg xmlns="http://www.w3.org/2000/svg" id="logo.3c052be" width="140.695" height="24.931" viewBox="0 0 140.695 24.931"><path id="logo.3c052be-2" data-name="logo.3c052be" d="M94.7.9H90.148V9.467C89.5,3.072,87.113.9,83.645.9c-2.6,0-4.553,1.3-5.745,4.661C77.033,2.2,74.54.9,70.421.9H65.868V9.467H65.76C65.109,3.072,62.725.9,59.256.9c-3.36,0-5.745,2.168-6.5,8.563h-.108V.9H46.791l-2.168,12.79h-.109L42.672.9H36.6V5.782C36.06,2.855,34.326.9,31.074.9,27.5.9,25.546,3.4,25.221,6.54,24.245,2.313,22.077.9,19.259.9c-3.144,0-5.42,1.843-6.287,7.154C12.755,4.264,11.671.9,7.119.9,3.542.9.615,4.156.615,13.369c0,7.913,1.626,12.465,6.5,12.465,4.336,0,5.528-3.469,5.853-6.937.867,5.2,3.143,6.937,6.287,6.937,3.035,0,5.2-1.734,6.178-6.612.217,3.143,1.409,6.612,5.853,6.612A5.651,5.651,0,0,0,36.6,22.908v2.818h3.36V7.516h.108l3.035,18.21H45.6l3.035-18.21h.108v18.21h4.011V17.163h.109c.65,6.4,3.035,8.563,6.5,8.563,3.36,0,5.745-2.168,6.5-8.563h.108v8.563h4.553V15.754h1.843a5.4,5.4,0,0,0,4.769-2.276c0,9.322,2.6,12.249,6.612,12.249,3.36,0,5.745-2.168,6.5-8.563v8.563h10.3V21.932H94.809V.9ZM9.287,16.3c-.108,3.469-.433,5.636-1.951,5.636-1.409,0-1.843-.867-1.843-8.78,0-8.021.975-8.563,1.951-8.563,1.084,0,1.626,1.517,1.626,5.42L12.864,9.9c-.108,1.084-.108,2.168-.108,3.469a30.5,30.5,0,0,0,.108,3.252Zm11.707-.433c0,5.2-.65,6.178-1.626,6.178-1.084,0-1.626-1.084-1.626-6.178V10.768c0-5.2.65-6.178,1.626-6.178,1.084,0,1.626,1.084,1.626,6.178v5.094Zm10.514,6.178c-1.951,0-1.951-2.385-1.951-3.686h-3.9a34.46,34.46,0,0,0,.325-5.094,23.588,23.588,0,0,0-.108-2.818c1.951,4.444,7.588,5.745,7.588,9.322A2.059,2.059,0,0,1,31.507,22.041ZM29.339,6.757c0-1.3.65-2.168,1.734-2.168,1.843,0,1.843,2.276,1.843,3.577H36.71v7.262C34.542,11.526,29.339,10.009,29.339,6.757Zm31.651,9.105c0,5.2-.65,6.287-1.626,6.287-1.084,0-1.626-1.084-1.626-6.287V10.768c0-5.2.65-6.287,1.626-6.287,1.084,0,1.626,1.084,1.626,6.287v5.094Zm9.864-3.685h-.434V4.7h.325c1.518,0,2.927.108,2.927,3.685C73.673,11.418,72.7,12.177,70.854,12.177Zm14.416,3.685c0,5.2-.65,6.287-1.626,6.287-1.084,0-1.626-1.084-1.626-6.287V10.768c0-5.2.65-6.287,1.626-6.287,1.084,0,1.626,1.084,1.626,6.287v5.094ZM101.2.9h4.553V25.726H101.2Zm17.56,0H106.408V4.7h3.9V25.726h4.553V4.7h3.9V.9m18.752,0V14.02h-.108L133.289.9h-4.444V22.583L126.135.9h-6.612l-3.469,24.822h3.794l.65-5.528h3.685l.65,5.528h7.913V10.659h.108l4.878,15.067h3.577V.9ZM121.041,16.621,122.45,4.7h.108l1.3,11.923Z" transform="translate(-0.615 -0.904)" fill="#fff"></path></svg> 