<?xml version="1.0" encoding="UTF-8"?> <svg xmlns="http://www.w3.org/2000/svg" id="logo-ELLE" width="71.392" height="24.188" viewBox="0 0 71.392 24.188"><path id="logo-ELLE-2" data-name="logo-ELLE" d="M6.137,30.968h-.95V19.116H5.6c1.618,0,2.471,1.715,2.471,4.332h.271V14.32H8.075c0,2.229-.756,4.506-2.471,4.506H5.187V7.42H6.408c1.909,0,4.012,1.541,4.012,5.659h.271V7.1H.7v.32H2.289V30.968H.7v.32H10.74V24.97h-.271c0,4.458-2.277,6-4.332,6Zm20.612,0H25.576V7.42h1.812V7.1H20.876v.32h1.812V30.949H20.876v.32H31.255V24.921h-.32C30.867,29.108,29.123,30.968,26.749,30.968Zm21.475,0H47.051V7.42h1.812V7.1H42.351v.32h1.812V30.949H42.351v.32H52.73V24.921h-.32C52.332,29.108,50.6,30.968,48.224,30.968Zm23.6-6v-.029c0,4.458-2.277,6-4.332,6h-.959V19.116h.417c1.618,0,2.471,1.715,2.471,4.332h.271V14.32h-.271c0,2.229-.756,4.506-2.471,4.506h-.417V7.42H67.75c1.938,0,4.012,1.541,4.012,5.659h.271V7.1H62.052v.32h1.589V30.968H62.052v.32h10.04V24.97h-.271Z" transform="translate(-0.7 -7.1)" fill="#fff"></path></svg> 