<?xml version="1.0" encoding="UTF-8"?> <svg xmlns="http://www.w3.org/2000/svg" id="Forbes" width="108.103" height="27.087" viewBox="0 0 108.103 27.087"><path id="Path_24" data-name="Path 24" d="M88.812-2.005A8.86,8.86,0,0,0,84.34-.888c0-3.976,0-7.578.125-8.82l-8.325,1.49v.746l.87.124c1.117.248,1.492.869,1.738,2.361.25,2.982.125,18.886,0,21.5a32.314,32.314,0,0,0,6.959.87c6.585,0,10.561-4.1,10.561-10.562,0-5.094-3.23-8.822-7.455-8.822ZM85.954,16.011a5.6,5.6,0,0,1-1.491-.123c-.125-1.739-.248-9.071-.125-15.531A5.5,5.5,0,0,1,86.2-.017c2.735,0,4.226,3.23,4.226,7.205C90.428,12.16,88.564,16.011,85.954,16.011ZM44.827-9.211H22.958v1.118l1.243.124c1.614.248,2.237,1.242,2.484,3.6a143.956,143.956,0,0,1,0,16.4c-.248,2.361-.869,3.48-2.484,3.6l-1.243.25v.994H37v-.994l-1.491-.25c-1.615-.123-2.236-1.241-2.485-3.6-.125-1.616-.249-4.225-.249-7.455l2.982.124c1.864,0,2.733,1.491,3.106,3.6H39.98V-.514H38.862c-.374,2.112-1.242,3.6-3.106,3.6l-2.981.125c0-4.225.124-8.2.249-10.561h4.348c3.356,0,5.1,2.112,6.337,5.84l1.243-.373-.125-7.331Z" transform="translate(-22.958 9.708)" fill="#fff"></path><path id="Path_25" data-name="Path 25" d="M59.492.656c6.213,0,9.319,4.225,9.319,9.816,0,5.343-3.479,9.817-9.692,9.817S49.8,16.063,49.8,10.471c0-5.343,3.479-9.816,9.692-9.816ZM59.118,1.9c-2.734,0-3.479,3.728-3.479,8.573,0,4.721,1.243,8.573,3.728,8.573,2.856,0,3.6-3.728,3.6-8.573C62.97,5.75,61.729,1.9,59.118,1.9Zm46.345,8.7c0-5.094,3.23-9.94,9.567-9.94,5.217,0,7.7,3.852,7.7,8.946H111.179c-.125,4.6,2.112,7.952,6.585,7.952a6.384,6.384,0,0,0,4.225-1.366l.5.621a9.307,9.307,0,0,1-7.454,3.48C109.439,20.288,105.464,16.312,105.464,10.6Zm5.715-2.361,5.84-.125c0-2.485-.373-6.212-2.485-6.212S111.3,5.377,111.179,8.235ZM137.522,1.65a15.185,15.185,0,0,0-5.715-.994c-4.6,0-7.456,2.733-7.456,5.964s2.11,4.6,5.1,5.592c3.105,1.117,3.976,1.988,3.976,3.479a2.878,2.878,0,0,1-3.107,2.857c-2.36,0-4.1-1.366-5.467-5.094l-.87.25.125,5.467a19.634,19.634,0,0,0,6.585,1.119c4.846,0,7.953-2.486,7.953-6.337,0-2.61-1.368-4.1-4.6-5.343-3.48-1.366-4.721-2.236-4.721-3.852a2.582,2.582,0,0,1,2.611-2.734c2.235,0,3.726,1.367,4.846,4.722l.869-.248-.127-4.845Zm-52.56-.5c-2.112-1.241-5.84-.621-7.827,3.852L77.259.656,68.935,2.271v.746l.87.124c1.119.125,1.615.746,1.74,2.361a104.6,104.6,0,0,1,0,10.81c-.125,1.49-.621,2.235-1.74,2.36l-.87.125v.994H80.49V18.8L79,18.672c-1.242-.125-1.615-.87-1.74-2.36a88.59,88.59,0,0,1-.123-10.065c.621-.87,3.354-1.615,5.839,0l1.988-5.1Z" transform="translate(-30.54 6.799)" fill="#fff"></path></svg> 