<?xml version="1.0" encoding="UTF-8"?> <svg xmlns="http://www.w3.org/2000/svg" id="logo_grazia" width="86.69" height="26.82" viewBox="0 0 86.69 26.82"><path id="Path_17" data-name="Path 17" d="M330.905,287.683a1.207,1.207,0,0,1,.149,0l.4,9.047-.133.007c-.277-1.026-1.02-8.985-3.92-8.985-2.228,0-2.973,9.757-2.973,13.028,0,4.233.551,13.117,3.052,13.117,1.206,0,1.862-1.958,1.862-4.543V301.1H328v-.325h5.4v.325h-1.356v12.936h-.156c-.2-.538-.225-1.646-1.1-1.646-.975,0-2.018,1.913-3.373,1.909-4.481-.012-6.042-7.861-6.042-13.517,0-4.687,1.805-13.3,6.037-13.3a1.925,1.925,0,0,1,1.774.949c.415.57,1.2.7,1.535-.03A3.372,3.372,0,0,0,330.905,287.683Z" transform="translate(-321.37 -287.48)" fill="#fff"></path><path id="Path_18" data-name="Path 18" d="M442.99,28.136V2.769h-1.2V2.46h5.1v.309h-1.2l.008,25.367h1.2v.312h-5.1v-.312h1.2V2.769" transform="translate(-376.482 -2.074)" fill="#fff"></path><path id="Path_19" data-name="Path 19" d="M660.646,315.665h3.2c1.5-.056,3.338-1.381,3.338-5.078v-2.181h.285v7.569H657.78l6.571-25.677H661.3c-1.94,0-3.01,2.779-3.01,5.33,0,.655-.022,1.925-.022,1.925H658V290h9.412Z" transform="translate(-608.211 -289.605)" fill="#fff"></path><path id="Path_20" data-name="Path 20" d="M442.764,290h5.709c2.731,0,4.5,2.876,4.5,6.328s-1.491,6.649-3.789,6.649c-.313,0-.28.175,0,.175,1.377,0,2.411,1.492,2.62,1.889.842,1.6.261,8.986,1.1,9.715.71.615,1.233-.347,1.325-.5l.088.059c-.014.068-.626,1.972-2.16,1.972-1.278,0-1.924-1.482-2.107-2.418-.3-1.516-.2-6.153-.365-7.086-.142-.813-.529-3.24-1.733-3.452a5.643,5.643,0,0,0-1.309-.092v12.445h1.2v.32H442.6v-.32h1.35v-25.37h-1.181Zm3.884.314v12.608a2.7,2.7,0,0,0,2.433-1.111c.889-1.084,1.241-3.819,1.241-5.858,0-2.175-1.15-5.645-2.625-5.645Z" transform="translate(-424.766 -289.605)" fill="#fff"></path><path id="Path_21" data-name="Path 21" d="M548.648,313.545l5.163-26.055,4.772,26.055h1.084v.314H554.7v-.317h1.087l-1.35-7.261h-3.955l-1.408,7.273h1.394v.311h-3v-.31Zm1.91-7.6h3.831l-1.846-10.173Z" transform="translate(-514.22 -287.488)" fill="#fff"></path><path id="Path_22" data-name="Path 22" d="M829.081,313.545l5.162-26.055,4.772,26.055H840.1v.314h-4.964v-.317h1.086l-1.35-7.261h-3.953l-1.408,7.273H830.9v.311h-3v-.308Zm1.912-7.6h3.83l-1.846-10.173Z" transform="translate(-753.41 -287.488)" fill="#fff"></path></svg> 