<?xml version="1.0" encoding="UTF-8"?> <svg xmlns="http://www.w3.org/2000/svg" width="110.627" height="25.814" viewBox="0 0 110.627 25.814"><g id="InStyle" transform="translate(0)"><path id="InStyle-2" data-name="InStyle" d="M139.255,105.009c3,0,5.647,1.268,6.108,3.5H133.225C133.686,106.239,136.259,105.009,139.255,105.009ZM78.1,118.492c6.53,0,10.871-2.458,10.871-6.837,0-5.992-7.836-6.031-12.1-6.223-1.421-.077-7.068-.077-7.068-2.266s4.264-2.958,7.106-2.958a15.918,15.918,0,0,1,9.488,2.766l1.959-2.766C85.94,98.556,82.329,97.1,76.836,97.1c-6.031-.077-10.986,1.882-10.986,6.3,0,5.224,7.3,5.3,10.986,5.531,1.882.154,8.3-.154,8.3,2.842,0,2.535-3.38,3.572-7.068,3.572-6.453,0-10.026-2.3-10.909-3.073l-2,3.073C68.808,117.877,72.687,118.492,78.1,118.492Zm18.553-.038a23.151,23.151,0,0,0,4.686-.73l-.883-3.15a9.594,9.594,0,0,1-3.111.615c-1.5,0-2-.384-2-1.652l-.038-8.259h5.07v-3.111h-5.07V98.134H91.586v4.072h-2.65v3.111h2.65v8.3c0,3.5,1.652,4.84,5.07,4.84Zm14.443,4.456,11.562-20.7H118.59L112.175,114l-6.146-11.792h-4.417l8.489,15.48-3.073,5.224Zm12.676-5.032h3.764v-20.4h-3.764Zm9.411-6.3h16.44c-.038-6.761-4.648-9.757-10.371-9.8-6.107-.038-10.179,3.38-10.179,8.335s3.688,8.335,10.179,8.335c4.84-.038,7.529-1.076,9.757-2.881L147.092,113c-1.191,1.037-3.227,2.113-7.8,2.113C136.682,115.189,133.647,114.113,133.186,111.578ZM39,117.877h4.033V97.519H39Zm20.666,0h3.8L63.43,108.5c0-4.456-2.612-6.761-8.3-6.761a11.523,11.523,0,0,0-6.376,1.844v-1.383H44.992v15.672h3.764v-10.6a9.5,9.5,0,0,1,6.223-2.228c3.764,0,4.648,1.152,4.648,4.763l.038,8.067Z" transform="translate(-39 -97.094)" fill="#fff"></path></g></svg> 