<?xml version="1.0" encoding="UTF-8"?> <svg xmlns="http://www.w3.org/2000/svg" id="marie-claire-vector-logo" width="130.009" height="23.585" viewBox="0 0 130.009 23.585"><path id="Fill-1" d="M236.7,299.03v14.041h5.092V296.3l-5.092,2.73" transform="translate(-189.81 -289.949)" fill="#fff"></path><path id="Fill-2" d="M240.089,269.634a3.1,3.1,0,0,0-1.105-1.43,3.132,3.132,0,0,0-3.727.455,3.067,3.067,0,0,0-.823,2.708,2.82,2.82,0,0,0,1.56,2.015,3.2,3.2,0,0,0,3.662-.867,3.244,3.244,0,0,0,.433-2.882h0" transform="translate(-187.999 -267.616)" fill="#fff"></path><path id="Fill-3" d="M41.795,299.579a3.073,3.073,0,0,0-2.167-2.188,4.965,4.965,0,0,0-5.7,2.384l-.108.195-.087-.217a3.48,3.48,0,0,0-2.882-2.514c-2.167-.347-3.835.5-5.439,2.665l-.2.282V297c-.3.152-4.919,2.514-4.919,2.514V313.62h4.919V303.045a1.622,1.622,0,0,1,1.647-1.517,1.67,1.67,0,0,1,1.538,1.517V313.6h5.135V303.045a1.673,1.673,0,0,1,1.733-1.517,1.646,1.646,0,0,1,1.5,1.517V313.6h5.179V301.377a7.652,7.652,0,0,0-.152-1.8" transform="translate(-20.3 -290.497)" fill="#fff"></path><path id="Fill-4" d="M136.175,312.276c-.433-.043-.563-.975-.563-.975l-.932-5.569-.217-1.083a19.46,19.46,0,0,0-.91-3.467c-1.452-3.337-5.569-3.9-8.624-2.99a6.3,6.3,0,0,0-.953.39v2.08a4.146,4.146,0,0,1,3.467-.108,3.659,3.659,0,0,1,1.712,2.86c0,.022.108.737.108.737a10.893,10.893,0,0,0-4.7,1.56,5.051,5.051,0,0,0-2.145,4.615,4.636,4.636,0,0,0,2.969,3.987c1.907.672,4.529.563,6.089-1.235l.195-.217.433.433c1.127,1.192,2.383,1.148,3.814,1.105l.758-.022v-2.037c.022,0-.477-.065-.5-.065Zm-6.544-5.677.932,4.507c-2.384,2.774-6.349-2.08-.932-4.507Z" transform="translate(-100.271 -291.126)" fill="#fff"></path><path id="Fill-5" d="M199.511,296.322c-2.253,0-3.467,2.6-3.489,2.643l-.217.5V296.3l-5.005,2.73v14.084h5.027V304.1l.022-.347a5.235,5.235,0,0,1,.433-2.167c.758-1.452,2.492-1.43,3.705-1.257l.888-3.792a5,5,0,0,0-1.365-.217" transform="translate(-153.856 -289.949)" fill="#fff"></path><path id="Fill-6" d="M525.476,296.56a3.83,3.83,0,0,0-1.365-.238c-2.253,0-3.467,2.6-3.489,2.643l-.217.5V296.3l-5.005,2.73v14.084h5.027V304.1l.022-.347a5.234,5.234,0,0,1,.433-2.167c.758-1.452,2.492-1.43,3.705-1.257l.888-3.77" transform="translate(-408.121 -289.949)" fill="#fff"></path><path id="Fill-7" d="M492.589,268.834a3.1,3.1,0,0,0-1.105-1.43,3.133,3.133,0,0,0-3.727.455,3.067,3.067,0,0,0-.823,2.709,2.819,2.819,0,0,0,1.56,2.015,3.2,3.2,0,0,0,3.662-.867,3.3,3.3,0,0,0,.433-2.882h0" transform="translate(-385.787 -266.99)" fill="#fff"></path><path id="Fill-8" d="M563.639,312.183c-1.993-.152-2.925-3.814-2.925-3.814l8.645-2.8s-.173-3.77-2.253-5.829a6.863,6.863,0,0,0-7.476-1.343,6.969,6.969,0,0,0-3.727,4.2,9.819,9.819,0,0,0,1.972,10.249c2.319,2.21,5.915,2.167,8.494,1.387l1.3-.563v-2.34a6.967,6.967,0,0,1-4.03.845Zm-3.055-6.2a9.465,9.465,0,0,1,.433-4.052c.39-.78.823-1.105,1.365-1.17,2.3-.282,2.535,3.922,2.535,3.922l-4.334,1.3Z" transform="translate(-439.35 -291.163)" fill="#fff"></path><path id="Fill-9" d="M489.1,299.03v14.041h5.092V296.3l-5.092,2.73" transform="translate(-387.52 -289.949)" fill="#fff"></path><path id="Fill-10" d="M274.806,299.646a6.863,6.863,0,0,0-7.475-1.343,6.969,6.969,0,0,0-3.727,4.2,9.819,9.819,0,0,0,1.972,10.249c2.319,2.21,5.915,2.167,8.494,1.387l1.3-.563v-2.34a6.932,6.932,0,0,1-4.03.823c-1.993-.152-2.925-3.814-2.925-3.814l8.646-2.8c0,.022-.173-3.749-2.253-5.807Zm-6.522,6.284h0a9.524,9.524,0,0,1,.433-4.074c.39-.78.823-1.105,1.365-1.17,2.3-.282,2.535,3.922,2.535,3.922l-4.334,1.322Z" transform="translate(-210.386 -291.084)" fill="#fff"></path><path id="Fill-11" d="M350.186,311.043c-1.343-.693-2.448-1.712-2.6-4.637-.173-3.4.52-5.807,2.34-6.5,1.387-.52,3.272.628,3.272.628l.022-2.752a8.148,8.148,0,0,0-5.525-.325c-2.644.845-4.334,2.9-4.94,6.262A11.1,11.1,0,0,0,343.881,311a6.946,6.946,0,0,0,7.064,3.1,23.133,23.133,0,0,0,2.535-.628l-.022-2.557c0-.022-1.885.845-3.272.13" transform="translate(-272.744 -290.586)" fill="#fff"></path><path id="Fill-12" d="M434.475,311.476c-.433-.043-.563-.975-.563-.975l-.932-5.569-.217-1.083a19.456,19.456,0,0,0-.91-3.467c-1.452-3.337-5.569-3.9-8.624-2.99a6.293,6.293,0,0,0-.953.39v2.08a4.147,4.147,0,0,1,3.467-.108,3.659,3.659,0,0,1,1.712,2.86c0,.022.108.737.108.737a10.892,10.892,0,0,0-4.7,1.56,5.051,5.051,0,0,0-2.145,4.615,4.636,4.636,0,0,0,2.969,3.987c1.907.672,4.529.563,6.089-1.235l.2-.217.433.433c1.127,1.192,2.384,1.148,3.814,1.105l.758-.022v-2.037c.022.022-.477-.065-.5-.065Zm-6.544-5.655.932,4.507c-2.384,2.773-6.349-2.08-.932-4.507Z" transform="translate(-333.935 -290.499)" fill="#fff"></path><path id="Fill-13" d="M395.2,294.777h5.005V273l-5.005,2.687v19.09" transform="translate(-313.966 -271.698)" fill="#fff"></path></svg> 