<?xml version="1.0" encoding="UTF-8"?> <svg xmlns="http://www.w3.org/2000/svg" xmlns:xlink="http://www.w3.org/1999/xlink" width="123.89" height="26.402" viewBox="0 0 123.89 26.402"><defs><clipPath id="clip-path"><rect id="Rectangle_48" data-name="Rectangle 48" width="123.89" height="26.403" fill="#fff"></rect></clipPath></defs><g id="logo" clip-path="url(#clip-path)"><path id="Path_7" data-name="Path 7" d="M4.827,27.1H7.763L12.154.523h1.134V0H9.537V.523h1.919L8.025,21.575,4.943.523H6.629V0H0V.523H.814Z" transform="translate(0.084 -0.584)" fill="#fff"></path><path id="Path_8" data-name="Path 8" d="M31.423,18.144l2.035-12.62,2.064,12.62ZM28.2,26.577V27.1H31.83v-.523H30l1.308-7.851h4.3l1.308,7.851H35.2V27.1h6.658v-.523h-.814L36.656,0H33.749l-4.42,26.577Z" transform="translate(-17.498 -0.584)" fill="#fff"></path><path id="Path_9" data-name="Path 9" d="M65.548,26.577V27.1h3.344v-.523h-1.8V2.791L75.143,27.1h2.326V.523h1.192V0H75V.523h1.774V19.075L70.375,0H65.2V.523h1.192V26.577Z" transform="translate(-40.574 -0.584)" fill="#fff"></path><path id="Path_10" data-name="Path 10" d="M102.973,26.577V27.1h6.4v-.523h-1.1V.523h1.1V0h-6.4V.523h1.1V26.577Z" transform="translate(-64.13 -0.584)" fill="#fff"></path><path id="Path_11" data-name="Path 11" d="M125.417,26.577V27.1h6.717v-.523h-1.279V.523H133.3l1.6,7.618h.524V0H122.131V8.142h.523L124.282.523H126.7V26.577Z" transform="translate(-76.078 -0.584)" fill="#fff"></path><path id="Path_12" data-name="Path 12" d="M162.206,26.577V27.1h6.716v-.523h-1.279V14.422l3.2-13.9h.959V0h-3.518V.523h1.861l-2.879,12.416L163.631.523H165.4V0h-6.658V.523h.814l3.925,13.9V26.577Z" transform="translate(-98.911 -0.584)" fill="#fff"></path><path id="Path_13" data-name="Path 13" d="M203.861,26.577V27.1h6.949v-.523h-1.657V13.259h2.559l.872,3.4h.524V9.188h-.524l-.872,3.431h-2.559V.523h4.041l1.745,6.571h.524V0h-11.6V.523h1.105V26.577Z" transform="translate(-127.045 -0.584)" fill="#fff"></path><path id="Path_14" data-name="Path 14" d="M233.431,18.144l2.035-12.62,2.064,12.62ZM230.2,26.577V27.1h3.634v-.523h-1.831l1.308-7.851h4.274l1.309,7.851h-1.716V27.1h6.658v-.523h-.814L238.664,0h-2.908l-4.42,26.577Z" transform="translate(-143.472 -0.584)" fill="#fff"></path><path id="Path_15" data-name="Path 15" d="M268.133,26.577V27.1h6.426v-.523h-1.134V.523h1.134V0h-6.426V.523h1.134V26.577Z" transform="translate(-167.126 -0.584)" fill="#fff"></path><path id="Path_16" data-name="Path 16" d="M293.192.552c2.035,0,3.547,1.018,3.547,5.583V8.287c0,3.809-1.047,5.234-3.257,5.234h-.872V.552Zm-5.9,26.024V27.1h6.949v-.523h-1.658v-12.5h1.192l3.867,13.056h4.972v-.523h-.727l-4.274-13.725a6.294,6.294,0,0,0,3.343-5.815c0-5-3.315-7.066-7.734-7.066h-5.932V.523h1.134V26.577Z" transform="translate(-179.072 -0.584)" fill="#fff"></path></g></svg> 