<?xml version="1.0" encoding="UTF-8"?> <svg xmlns="http://www.w3.org/2000/svg" id="logo_1_" data-name="logo (1)" width="91.769" height="23.585" viewBox="0 0 91.769 23.585"><path id="logo_1_2" data-name="logo (1)" d="M50.224,14.049v-.511h7.085v.526H55.624v9.221h-.316l-.03-.12a1.686,1.686,0,0,0-1.624-1.233h-.181a5.821,5.821,0,0,0-2.248.713l-.084.04-.218.09c-.071.03-.143.06-.218.09a5.956,5.956,0,0,1-2.648.707c-5.475,0-9.476-4.723-9.476-11.387C38.582,4.016,43.937.06,47.833.06A6.369,6.369,0,0,1,50,.466l.316.09.225.076h0c.166.057.347.118.541.179l.3.075a4.911,4.911,0,0,0,.8.105,1.658,1.658,0,0,0,1.715-.9L53.939,0h.331V8.273h-.346l-.03-.12C52.51,2.647,50.811.6,47.848.587h-.03a3.8,3.8,0,0,0-3.685,2.407c-1.158,2.241-1.4,7.355-1.4,8.92,0,4.377.391,6.257,1.128,8.213a3.952,3.952,0,0,0,4.031,2.933c1.82-.03,4.152-.812,4.152-4.317V14.049Zm41.109.963v-.135h.436v8.273H75.509v-.541h1.986V1.188H73.418V17.343a5.907,5.907,0,0,1-5.942,6.242c-6.122,0-8.213-3.189-8.213-7.31V1.188H57.158V.662h7.9v.526H63.025V18.155c0,.181.135,4.663,4.588,4.828a4.961,4.961,0,0,0,3.5-1.339,6.1,6.1,0,0,0,1.73-4.452v-16H71.1V.662h19.75V8.243h-.361l-.03-.12c-1.392-7.046-4.614-6.979-7.916-6.911l-.372.007c-.241.015-.632.015-.873.015V11.4h.184c1.817,0,4.029,0,4.509-4.407l.015-.135h.361v9.7h-.361l-.015-.135c-.35-4.524-2.414-4.5-4.24-4.484h-.468v10.68h.181l.231,0c1.272.015,4.8.055,7.244-2.153A7.487,7.487,0,0,0,91.333,15.012ZM26.97.12c-4.618,0-9.687,4.618-9.687,11.672s5.235,11.733,9.687,11.733,9.687-4.678,9.687-11.733C36.642,4.738,31.588.12,26.97.12Zm5.385,10.8v.963c0,1.309-.12,6.348-1.444,8.86a4.242,4.242,0,0,1-3.971,2.226,4.226,4.226,0,0,1-3.971-2.226c-1.324-2.512-1.429-7.551-1.429-8.86V10.86c.045-2.016.3-5.791,1.429-8A4.217,4.217,0,0,1,26.94.632a4.2,4.2,0,0,1,3.971,2.226c1.128,2.211,1.369,5.987,1.429,8A.09.09,0,0,1,32.355,10.92ZM14.936.662h4.287v.511H17.193l-6.6,22.1h-.12l-8.3-22.1H0V.662H7.476v.511H5.791L11.717,17.6l4.9-16.426H14.786V.662Z" transform="translate(0)" fill="#fff" fill-rule="evenodd"></path></svg> 